<mxfile host="drawio-plugin" modified="2022-10-30T12:00:55.096Z" agent="5.0 (Macintosh; Intel Mac OS X 10_15_7) AppleWebKit/537.36 (KHTML, like Gecko) Chrome/97.0.4692.45 Safari/537.36" etag="eU_-I-k2m-FNE0i99Kek" version="15.5.4" type="embed" pages="2"><diagram id="8SFAaCgcCNAGXrlitQPh" name="通讯流程"><mxGraphModel dx="607" dy="649" grid="1" gridSize="10" guides="1" tooltips="1" connect="1" arrows="1" fold="1" page="1" pageScale="1" pageWidth="827" pageHeight="1169" math="0" shadow="0"><root><mxCell id="0"/><mxCell id="1" parent="0"/><mxCell id="qDgGFHD5ld3_xsTvV6nE-1" value="server" style="rounded=0;whiteSpace=wrap;html=1;" parent="1" vertex="1"><mxGeometry x="40" y="40" width="120" height="60" as="geometry"/></mxCell><mxCell id="qDgGFHD5ld3_xsTvV6nE-2" value="client" style="rounded=0;whiteSpace=wrap;html=1;" parent="1" vertex="1"><mxGeometry x="340" y="40" width="120" height="60" as="geometry"/></mxCell><mxCell id="qDgGFHD5ld3_xsTvV6nE-3" value="" style="endArrow=none;html=1;rounded=0;entryX=0.5;entryY=1;entryDx=0;entryDy=0;" parent="1" target="qDgGFHD5ld3_xsTvV6nE-1" edge="1"><mxGeometry width="50" height="50" relative="1" as="geometry"><mxPoint x="100" y="420" as="sourcePoint"/><mxPoint x="99.71000000000001" y="120" as="targetPoint"/></mxGeometry></mxCell><mxCell id="qDgGFHD5ld3_xsTvV6nE-4" value="" style="endArrow=none;html=1;rounded=0;entryX=0.5;entryY=1;entryDx=0;entryDy=0;" parent="1" target="qDgGFHD5ld3_xsTvV6nE-2" edge="1"><mxGeometry width="50" height="50" relative="1" as="geometry"><mxPoint x="400" y="420" as="sourcePoint"/><mxPoint x="399.71000000000004" y="120" as="targetPoint"/></mxGeometry></mxCell><mxCell id="qDgGFHD5ld3_xsTvV6nE-5" value="" style="endArrow=classic;html=1;rounded=0;" parent="1" edge="1"><mxGeometry width="50" height="50" relative="1" as="geometry"><mxPoint x="400" y="150" as="sourcePoint"/><mxPoint x="100" y="150" as="targetPoint"/></mxGeometry></mxCell><mxCell id="qDgGFHD5ld3_xsTvV6nE-6" value="连接注册" style="edgeLabel;html=1;align=center;verticalAlign=middle;resizable=0;points=[];" parent="qDgGFHD5ld3_xsTvV6nE-5" vertex="1" connectable="0"><mxGeometry x="0.3448" y="-2" relative="1" as="geometry"><mxPoint x="22" as="offset"/></mxGeometry></mxCell><mxCell id="qDgGFHD5ld3_xsTvV6nE-7" value="" style="endArrow=classic;html=1;rounded=0;" parent="1" edge="1"><mxGeometry width="50" height="50" relative="1" as="geometry"><mxPoint x="100" y="170" as="sourcePoint"/><mxPoint x="400" y="170" as="targetPoint"/></mxGeometry></mxCell><mxCell id="qDgGFHD5ld3_xsTvV6nE-8" value="下发注册信息（客户端唯一标识）" style="edgeLabel;html=1;align=center;verticalAlign=middle;resizable=0;points=[];" parent="qDgGFHD5ld3_xsTvV6nE-7" vertex="1" connectable="0"><mxGeometry x="0.3448" y="-2" relative="1" as="geometry"><mxPoint x="-72" as="offset"/></mxGeometry></mxCell><mxCell id="qDgGFHD5ld3_xsTvV6nE-9" value="" style="endArrow=none;html=1;rounded=0;" parent="1" edge="1"><mxGeometry width="50" height="50" relative="1" as="geometry"><mxPoint x="100" y="220" as="sourcePoint"/><mxPoint x="400" y="220" as="targetPoint"/></mxGeometry></mxCell><mxCell id="qDgGFHD5ld3_xsTvV6nE-10" value="文件传输通讯" style="edgeLabel;html=1;align=center;verticalAlign=middle;resizable=0;points=[];" parent="qDgGFHD5ld3_xsTvV6nE-9" vertex="1" connectable="0"><mxGeometry x="-0.1429" y="-1" relative="1" as="geometry"><mxPoint as="offset"/></mxGeometry></mxCell><mxCell id="qDgGFHD5ld3_xsTvV6nE-12" value="" style="endArrow=none;html=1;rounded=0;" parent="1" edge="1"><mxGeometry width="50" height="50" relative="1" as="geometry"><mxPoint x="100" y="120" as="sourcePoint"/><mxPoint x="400" y="120" as="targetPoint"/></mxGeometry></mxCell><mxCell id="qDgGFHD5ld3_xsTvV6nE-13" value="建立连接" style="edgeLabel;html=1;align=center;verticalAlign=middle;resizable=0;points=[];" parent="qDgGFHD5ld3_xsTvV6nE-12" vertex="1" connectable="0"><mxGeometry x="-0.1429" y="-1" relative="1" as="geometry"><mxPoint y="-1" as="offset"/></mxGeometry></mxCell><mxCell id="qDgGFHD5ld3_xsTvV6nE-14" value="" style="endArrow=classic;html=1;rounded=0;" parent="1" edge="1"><mxGeometry width="50" height="50" relative="1" as="geometry"><mxPoint x="400" y="260" as="sourcePoint"/><mxPoint x="100" y="260" as="targetPoint"/></mxGeometry></mxCell><mxCell id="qDgGFHD5ld3_xsTvV6nE-15" value="发送此次发送文件相关信息(开始帧)" style="edgeLabel;html=1;align=center;verticalAlign=middle;resizable=0;points=[];" parent="qDgGFHD5ld3_xsTvV6nE-14" vertex="1" connectable="0"><mxGeometry x="0.3448" y="-2" relative="1" as="geometry"><mxPoint x="42" as="offset"/></mxGeometry></mxCell><mxCell id="qDgGFHD5ld3_xsTvV6nE-16" value="" style="endArrow=classic;html=1;rounded=0;" parent="1" edge="1"><mxGeometry width="50" height="50" relative="1" as="geometry"><mxPoint x="100" y="290" as="sourcePoint"/><mxPoint x="400" y="290" as="targetPoint"/></mxGeometry></mxCell><mxCell id="qDgGFHD5ld3_xsTvV6nE-17" value="下发接收确认信息（文件唯一性标识）" style="edgeLabel;html=1;align=center;verticalAlign=middle;resizable=0;points=[];" parent="qDgGFHD5ld3_xsTvV6nE-16" vertex="1" connectable="0"><mxGeometry x="0.3448" y="-2" relative="1" as="geometry"><mxPoint x="-62" as="offset"/></mxGeometry></mxCell><mxCell id="qDgGFHD5ld3_xsTvV6nE-18" value="" style="endArrow=classic;html=1;rounded=0;" parent="1" edge="1"><mxGeometry width="50" height="50" relative="1" as="geometry"><mxPoint x="400" y="330" as="sourcePoint"/><mxPoint x="100" y="330" as="targetPoint"/><Array as="points"><mxPoint x="250" y="330"/></Array></mxGeometry></mxCell><mxCell id="qDgGFHD5ld3_xsTvV6nE-19" value="发送文件数据帧" style="edgeLabel;html=1;align=center;verticalAlign=middle;resizable=0;points=[];" parent="qDgGFHD5ld3_xsTvV6nE-18" vertex="1" connectable="0"><mxGeometry x="0.3448" y="-2" relative="1" as="geometry"><mxPoint x="42" as="offset"/></mxGeometry></mxCell><mxCell id="qDgGFHD5ld3_xsTvV6nE-20" value="" style="endArrow=classic;html=1;rounded=0;" parent="1" edge="1"><mxGeometry width="50" height="50" relative="1" as="geometry"><mxPoint x="400" y="380" as="sourcePoint"/><mxPoint x="100" y="380" as="targetPoint"/></mxGeometry></mxCell><mxCell id="qDgGFHD5ld3_xsTvV6nE-21" value="发送结束帧（结束标志，文件唯一性标识）" style="edgeLabel;html=1;align=center;verticalAlign=middle;resizable=0;points=[];" parent="qDgGFHD5ld3_xsTvV6nE-20" vertex="1" connectable="0"><mxGeometry x="0.3448" y="-2" relative="1" as="geometry"><mxPoint x="52" y="2" as="offset"/></mxGeometry></mxCell><mxCell id="qDgGFHD5ld3_xsTvV6nE-23" value="" style="endArrow=classic;html=1;rounded=0;" parent="1" edge="1"><mxGeometry width="50" height="50" relative="1" as="geometry"><mxPoint x="400" y="350" as="sourcePoint"/><mxPoint x="100" y="350" as="targetPoint"/><Array as="points"><mxPoint x="250" y="350"/></Array></mxGeometry></mxCell><mxCell id="qDgGFHD5ld3_xsTvV6nE-24" value="....." style="edgeLabel;html=1;align=center;verticalAlign=middle;resizable=0;points=[];" parent="qDgGFHD5ld3_xsTvV6nE-23" vertex="1" connectable="0"><mxGeometry x="0.3448" y="-2" relative="1" as="geometry"><mxPoint x="42" as="offset"/></mxGeometry></mxCell></root></mxGraphModel></diagram><diagram id="6mTFeVUvNXrapjVvyZEe" name="数据定义"><mxGraphModel dx="418" dy="448" grid="1" gridSize="10" guides="1" tooltips="1" connect="1" arrows="1" fold="1" page="1" pageScale="1" pageWidth="827" pageHeight="1169" math="0" shadow="0"><root><mxCell id="0"/><mxCell id="1" parent="0"/><mxCell id="rPGyyY9bBGVYOxDKWMaW-10" value="" style="text;strokeColor=none;fillColor=none;align=left;verticalAlign=middle;spacingTop=-1;spacingLeft=4;spacingRight=4;rotatable=0;labelPosition=right;points=[];portConstraint=eastwest;" parent="1" vertex="1"><mxGeometry x="350" y="200" width="20" height="14" as="geometry"/></mxCell><mxCell id="rPGyyY9bBGVYOxDKWMaW-14" value="数据帧定义" style="shape=table;html=1;whiteSpace=wrap;startSize=30;container=1;collapsible=0;childLayout=tableLayout;" parent="1" vertex="1"><mxGeometry x="20" y="30" width="338" height="113" as="geometry"/></mxCell><mxCell id="rPGyyY9bBGVYOxDKWMaW-15" value="" style="shape=tableRow;horizontal=0;startSize=0;swimlaneHead=0;swimlaneBody=0;top=0;left=0;bottom=0;right=0;collapsible=0;dropTarget=0;fillColor=none;points=[[0,0.5],[1,0.5]];portConstraint=eastwest;" parent="rPGyyY9bBGVYOxDKWMaW-14" vertex="1"><mxGeometry y="30" width="338" height="53" as="geometry"/></mxCell><mxCell id="rPGyyY9bBGVYOxDKWMaW-16" value="开始位 1byte" style="shape=partialRectangle;html=1;whiteSpace=wrap;connectable=0;fillColor=none;top=0;left=0;bottom=0;right=0;overflow=hidden;" parent="rPGyyY9bBGVYOxDKWMaW-15" vertex="1"><mxGeometry width="60" height="53" as="geometry"><mxRectangle width="60" height="53" as="alternateBounds"/></mxGeometry></mxCell><mxCell id="rPGyyY9bBGVYOxDKWMaW-17" value="功能位 1byte" style="shape=partialRectangle;html=1;whiteSpace=wrap;connectable=0;fillColor=none;top=0;left=0;bottom=0;right=0;overflow=hidden;" parent="rPGyyY9bBGVYOxDKWMaW-15" vertex="1"><mxGeometry x="60" width="60" height="53" as="geometry"><mxRectangle width="60" height="53" as="alternateBounds"/></mxGeometry></mxCell><mxCell id="rPGyyY9bBGVYOxDKWMaW-18" value="数据位" style="shape=partialRectangle;html=1;whiteSpace=wrap;connectable=0;fillColor=none;top=0;left=0;bottom=0;right=0;overflow=hidden;" parent="rPGyyY9bBGVYOxDKWMaW-15" vertex="1"><mxGeometry x="120" width="70" height="53" as="geometry"><mxRectangle width="70" height="53" as="alternateBounds"/></mxGeometry></mxCell><mxCell id="rPGyyY9bBGVYOxDKWMaW-63" value="数据结束位&lt;br&gt;1 byte" style="shape=partialRectangle;html=1;whiteSpace=wrap;connectable=0;fillColor=none;top=0;left=0;bottom=0;right=0;overflow=hidden;" parent="rPGyyY9bBGVYOxDKWMaW-15" vertex="1"><mxGeometry x="190" width="80" height="53" as="geometry"><mxRectangle width="80" height="53" as="alternateBounds"/></mxGeometry></mxCell><mxCell id="rPGyyY9bBGVYOxDKWMaW-54" value="数据填充位&lt;br&gt;1byte" style="shape=partialRectangle;html=1;whiteSpace=wrap;connectable=0;fillColor=none;top=0;left=0;bottom=0;right=0;overflow=hidden;" parent="rPGyyY9bBGVYOxDKWMaW-15" vertex="1"><mxGeometry x="270" width="68" height="53" as="geometry"><mxRectangle width="68" height="53" as="alternateBounds"/></mxGeometry></mxCell><mxCell id="rPGyyY9bBGVYOxDKWMaW-45" value="" style="shape=tableRow;horizontal=0;startSize=0;swimlaneHead=0;swimlaneBody=0;top=0;left=0;bottom=0;right=0;collapsible=0;dropTarget=0;fillColor=none;points=[[0,0.5],[1,0.5]];portConstraint=eastwest;" parent="rPGyyY9bBGVYOxDKWMaW-14" vertex="1"><mxGeometry y="83" width="338" height="30" as="geometry"/></mxCell><mxCell id="rPGyyY9bBGVYOxDKWMaW-46" value="0xfffe" style="shape=partialRectangle;html=1;whiteSpace=wrap;connectable=0;fillColor=none;top=0;left=0;bottom=0;right=0;overflow=hidden;" parent="rPGyyY9bBGVYOxDKWMaW-45" vertex="1"><mxGeometry width="60" height="30" as="geometry"><mxRectangle width="60" height="30" as="alternateBounds"/></mxGeometry></mxCell><mxCell id="rPGyyY9bBGVYOxDKWMaW-47" value="desperate" style="shape=partialRectangle;html=1;whiteSpace=wrap;connectable=0;fillColor=none;top=0;left=0;bottom=0;right=0;overflow=hidden;" parent="rPGyyY9bBGVYOxDKWMaW-45" vertex="1"><mxGeometry x="60" width="60" height="30" as="geometry"><mxRectangle width="60" height="30" as="alternateBounds"/></mxGeometry></mxCell><mxCell id="rPGyyY9bBGVYOxDKWMaW-48" value="&lt;font style=&quot;font-size: 11px;&quot;&gt;数据传输正文&lt;/font&gt;" style="shape=partialRectangle;html=1;whiteSpace=wrap;connectable=0;fillColor=none;top=0;left=0;bottom=0;right=0;overflow=hidden;" parent="rPGyyY9bBGVYOxDKWMaW-45" vertex="1"><mxGeometry x="120" width="70" height="30" as="geometry"><mxRectangle width="70" height="30" as="alternateBounds"/></mxGeometry></mxCell><mxCell id="rPGyyY9bBGVYOxDKWMaW-64" value="0xeeef" style="shape=partialRectangle;html=1;whiteSpace=wrap;connectable=0;fillColor=none;top=0;left=0;bottom=0;right=0;overflow=hidden;fontSize=10;" parent="rPGyyY9bBGVYOxDKWMaW-45" vertex="1"><mxGeometry x="190" width="80" height="30" as="geometry"><mxRectangle width="80" height="30" as="alternateBounds"/></mxGeometry></mxCell><mxCell id="rPGyyY9bBGVYOxDKWMaW-55" value="&lt;p style=&quot;line-height: 1.2; font-size: 9px;&quot;&gt;0xeeee&lt;/p&gt;" style="shape=partialRectangle;html=1;whiteSpace=wrap;connectable=0;fillColor=none;top=0;left=0;bottom=0;right=0;overflow=hidden;fontSize=9;horizontal=1;align=center;" parent="rPGyyY9bBGVYOxDKWMaW-45" vertex="1"><mxGeometry x="270" width="68" height="30" as="geometry"><mxRectangle width="68" height="30" as="alternateBounds"/></mxGeometry></mxCell><mxCell id="rPGyyY9bBGVYOxDKWMaW-65" value="功能位定义" style="shape=table;html=1;whiteSpace=wrap;startSize=40;container=1;collapsible=0;childLayout=tableLayout;fontSize=11;" parent="1" vertex="1"><mxGeometry x="20" y="170" width="190" height="140" as="geometry"/></mxCell><mxCell id="rPGyyY9bBGVYOxDKWMaW-66" value="" style="shape=tableRow;horizontal=0;startSize=0;swimlaneHead=0;swimlaneBody=0;top=0;left=0;bottom=0;right=0;collapsible=0;dropTarget=0;fillColor=none;points=[[0,0.5],[1,0.5]];portConstraint=eastwest;fontSize=11;" parent="rPGyyY9bBGVYOxDKWMaW-65" vertex="1"><mxGeometry y="40" width="190" height="36" as="geometry"/></mxCell><mxCell id="rPGyyY9bBGVYOxDKWMaW-67" value="0" style="shape=partialRectangle;html=1;whiteSpace=wrap;connectable=0;fillColor=none;top=0;left=0;bottom=0;right=0;overflow=hidden;fontSize=11;" parent="rPGyyY9bBGVYOxDKWMaW-66" vertex="1"><mxGeometry width="95" height="36" as="geometry"><mxRectangle width="95" height="36" as="alternateBounds"/></mxGeometry></mxCell><mxCell id="rPGyyY9bBGVYOxDKWMaW-68" value="客户端连接注册" style="shape=partialRectangle;html=1;whiteSpace=wrap;connectable=0;fillColor=none;top=0;left=0;bottom=0;right=0;overflow=hidden;fontSize=11;" parent="rPGyyY9bBGVYOxDKWMaW-66" vertex="1"><mxGeometry x="95" width="95" height="36" as="geometry"><mxRectangle width="95" height="36" as="alternateBounds"/></mxGeometry></mxCell><mxCell id="rPGyyY9bBGVYOxDKWMaW-70" value="" style="shape=tableRow;horizontal=0;startSize=0;swimlaneHead=0;swimlaneBody=0;top=0;left=0;bottom=0;right=0;collapsible=0;dropTarget=0;fillColor=none;points=[[0,0.5],[1,0.5]];portConstraint=eastwest;fontSize=11;" parent="rPGyyY9bBGVYOxDKWMaW-65" vertex="1"><mxGeometry y="76" width="190" height="31" as="geometry"/></mxCell><mxCell id="rPGyyY9bBGVYOxDKWMaW-71" value="1" style="shape=partialRectangle;html=1;whiteSpace=wrap;connectable=0;fillColor=none;top=0;left=0;bottom=0;right=0;overflow=hidden;fontSize=11;" parent="rPGyyY9bBGVYOxDKWMaW-70" vertex="1"><mxGeometry width="95" height="31" as="geometry"><mxRectangle width="95" height="31" as="alternateBounds"/></mxGeometry></mxCell><mxCell id="rPGyyY9bBGVYOxDKWMaW-72" value="文件描述" style="shape=partialRectangle;html=1;whiteSpace=wrap;connectable=0;fillColor=none;top=0;left=0;bottom=0;right=0;overflow=hidden;fontSize=11;" parent="rPGyyY9bBGVYOxDKWMaW-70" vertex="1"><mxGeometry x="95" width="95" height="31" as="geometry"><mxRectangle width="95" height="31" as="alternateBounds"/></mxGeometry></mxCell><mxCell id="rPGyyY9bBGVYOxDKWMaW-74" value="" style="shape=tableRow;horizontal=0;startSize=0;swimlaneHead=0;swimlaneBody=0;top=0;left=0;bottom=0;right=0;collapsible=0;dropTarget=0;fillColor=none;points=[[0,0.5],[1,0.5]];portConstraint=eastwest;fontSize=11;" parent="rPGyyY9bBGVYOxDKWMaW-65" vertex="1"><mxGeometry y="107" width="190" height="33" as="geometry"/></mxCell><mxCell id="rPGyyY9bBGVYOxDKWMaW-75" value="2" style="shape=partialRectangle;html=1;whiteSpace=wrap;connectable=0;fillColor=none;top=0;left=0;bottom=0;right=0;overflow=hidden;fontSize=11;" parent="rPGyyY9bBGVYOxDKWMaW-74" vertex="1"><mxGeometry width="95" height="33" as="geometry"><mxRectangle width="95" height="33" as="alternateBounds"/></mxGeometry></mxCell><mxCell id="rPGyyY9bBGVYOxDKWMaW-76" value="文件内容切片" style="shape=partialRectangle;html=1;whiteSpace=wrap;connectable=0;fillColor=none;top=0;left=0;bottom=0;right=0;overflow=hidden;fontSize=11;" parent="rPGyyY9bBGVYOxDKWMaW-74" vertex="1"><mxGeometry x="95" width="95" height="33" as="geometry"><mxRectangle width="95" height="33" as="alternateBounds"/></mxGeometry></mxCell><mxCell id="i1B6D4Rorzvoc9Xn2FrE-1" value="文件描述格式定义" style="shape=table;html=1;whiteSpace=wrap;startSize=40;container=1;collapsible=0;childLayout=tableLayout;fontSize=9;" parent="1" vertex="1"><mxGeometry x="440" y="70" width="180" height="120" as="geometry"/></mxCell><mxCell id="i1B6D4Rorzvoc9Xn2FrE-2" value="" style="shape=tableRow;horizontal=0;startSize=0;swimlaneHead=0;swimlaneBody=0;top=0;left=0;bottom=0;right=0;collapsible=0;dropTarget=0;fillColor=none;points=[[0,0.5],[1,0.5]];portConstraint=eastwest;fontSize=9;" parent="i1B6D4Rorzvoc9Xn2FrE-1" vertex="1"><mxGeometry y="40" width="180" height="27" as="geometry"/></mxCell><mxCell id="i1B6D4Rorzvoc9Xn2FrE-3" value="格式" style="shape=partialRectangle;html=1;whiteSpace=wrap;connectable=0;fillColor=none;top=0;left=0;bottom=0;right=0;overflow=hidden;fontSize=9;" parent="i1B6D4Rorzvoc9Xn2FrE-2" vertex="1"><mxGeometry width="60" height="27" as="geometry"><mxRectangle width="60" height="27" as="alternateBounds"/></mxGeometry></mxCell><mxCell id="i1B6D4Rorzvoc9Xn2FrE-4" value="" style="shape=partialRectangle;html=1;whiteSpace=wrap;connectable=0;fillColor=none;top=0;left=0;bottom=0;right=0;overflow=hidden;fontSize=9;" parent="i1B6D4Rorzvoc9Xn2FrE-2" vertex="1"><mxGeometry x="60" width="60" height="27" as="geometry"><mxRectangle width="60" height="27" as="alternateBounds"/></mxGeometry></mxCell><mxCell id="i1B6D4Rorzvoc9Xn2FrE-5" value="" style="shape=partialRectangle;html=1;whiteSpace=wrap;connectable=0;fillColor=none;top=0;left=0;bottom=0;right=0;overflow=hidden;fontSize=9;" parent="i1B6D4Rorzvoc9Xn2FrE-2" vertex="1"><mxGeometry x="120" width="60" height="27" as="geometry"><mxRectangle width="60" height="27" as="alternateBounds"/></mxGeometry></mxCell><mxCell id="i1B6D4Rorzvoc9Xn2FrE-6" value="" style="shape=tableRow;horizontal=0;startSize=0;swimlaneHead=0;swimlaneBody=0;top=0;left=0;bottom=0;right=0;collapsible=0;dropTarget=0;fillColor=none;points=[[0,0.5],[1,0.5]];portConstraint=eastwest;fontSize=9;" parent="i1B6D4Rorzvoc9Xn2FrE-1" vertex="1"><mxGeometry y="67" width="180" height="26" as="geometry"/></mxCell><mxCell id="i1B6D4Rorzvoc9Xn2FrE-7" value="json" style="shape=partialRectangle;html=1;whiteSpace=wrap;connectable=0;fillColor=none;top=0;left=0;bottom=0;right=0;overflow=hidden;fontSize=9;" parent="i1B6D4Rorzvoc9Xn2FrE-6" vertex="1"><mxGeometry width="60" height="26" as="geometry"><mxRectangle width="60" height="26" as="alternateBounds"/></mxGeometry></mxCell><mxCell id="i1B6D4Rorzvoc9Xn2FrE-8" value="" style="shape=partialRectangle;html=1;whiteSpace=wrap;connectable=0;fillColor=none;top=0;left=0;bottom=0;right=0;overflow=hidden;fontSize=9;" parent="i1B6D4Rorzvoc9Xn2FrE-6" vertex="1"><mxGeometry x="60" width="60" height="26" as="geometry"><mxRectangle width="60" height="26" as="alternateBounds"/></mxGeometry></mxCell><mxCell id="i1B6D4Rorzvoc9Xn2FrE-9" value="" style="shape=partialRectangle;html=1;whiteSpace=wrap;connectable=0;fillColor=none;top=0;left=0;bottom=0;right=0;overflow=hidden;fontSize=9;" parent="i1B6D4Rorzvoc9Xn2FrE-6" vertex="1"><mxGeometry x="120" width="60" height="26" as="geometry"><mxRectangle width="60" height="26" as="alternateBounds"/></mxGeometry></mxCell><mxCell id="i1B6D4Rorzvoc9Xn2FrE-10" value="" style="shape=tableRow;horizontal=0;startSize=0;swimlaneHead=0;swimlaneBody=0;top=0;left=0;bottom=0;right=0;collapsible=0;dropTarget=0;fillColor=none;points=[[0,0.5],[1,0.5]];portConstraint=eastwest;fontSize=9;" parent="i1B6D4Rorzvoc9Xn2FrE-1" vertex="1"><mxGeometry y="93" width="180" height="27" as="geometry"/></mxCell><mxCell id="i1B6D4Rorzvoc9Xn2FrE-11" value="" style="shape=partialRectangle;html=1;whiteSpace=wrap;connectable=0;fillColor=none;top=0;left=0;bottom=0;right=0;overflow=hidden;fontSize=9;" parent="i1B6D4Rorzvoc9Xn2FrE-10" vertex="1"><mxGeometry width="60" height="27" as="geometry"><mxRectangle width="60" height="27" as="alternateBounds"/></mxGeometry></mxCell><mxCell id="i1B6D4Rorzvoc9Xn2FrE-12" value="" style="shape=partialRectangle;html=1;whiteSpace=wrap;connectable=0;fillColor=none;top=0;left=0;bottom=0;right=0;overflow=hidden;fontSize=9;" parent="i1B6D4Rorzvoc9Xn2FrE-10" vertex="1"><mxGeometry x="60" width="60" height="27" as="geometry"><mxRectangle width="60" height="27" as="alternateBounds"/></mxGeometry></mxCell><mxCell id="i1B6D4Rorzvoc9Xn2FrE-13" value="" style="shape=partialRectangle;html=1;whiteSpace=wrap;connectable=0;fillColor=none;top=0;left=0;bottom=0;right=0;overflow=hidden;pointerEvents=1;fontSize=9;" parent="i1B6D4Rorzvoc9Xn2FrE-10" vertex="1"><mxGeometry x="120" width="60" height="27" as="geometry"><mxRectangle width="60" height="27" as="alternateBounds"/></mxGeometry></mxCell><mxCell id="8DQ-r666rvIEKpibMPWN-1" value="流式传输需要自己对数据进行切片&lt;br&gt;有两种方式来处理这种情况&lt;br&gt;1.&amp;nbsp; 包定长，规定每次数据传输的帧大小，记录标志位，&lt;br&gt;&amp;nbsp;&lt;span style=&quot;white-space: pre&quot;&gt;&#9;&lt;/span&gt;这种方式需要填充没有占满的数据空位，会浪费数据传输带宽&lt;br&gt;&lt;div&gt;&lt;span&gt;2. 不定长，根据每次的传送过来的数据，来判断下一次的数据接受量&lt;/span&gt;&lt;/div&gt;&lt;div&gt;&lt;span&gt;&lt;span style=&quot;white-space: pre&quot;&gt;&#9;&lt;/span&gt;这种方式更加灵活，但是实现起来也比较麻烦&lt;br&gt;&lt;/span&gt;&lt;/div&gt;" style="text;html=1;align=left;verticalAlign=middle;resizable=0;points=[];autosize=1;strokeColor=none;fillColor=none;" vertex="1" parent="1"><mxGeometry x="10" y="365" width="380" height="90" as="geometry"/></mxCell></root></mxGraphModel></diagram></mxfile>